<?xml version="1.0" standalone="no"?>
<!DOCTYPE svg PUBLIC "-//W3C//DTD SVG 20010904//EN"
 "http://www.w3.org/TR/2001/REC-SVG-20010904/DTD/svg10.dtd">
<svg version="1.0" xmlns="http://www.w3.org/2000/svg"
 width="487.000000pt" height="430.000000pt" viewBox="0 0 487.000000 430.000000"
 preserveAspectRatio="xMidYMid meet">

<g transform="translate(0.000000,430.000000) scale(0.100000,-0.100000)"
fill="#000000" stroke="none">
<path d="M868 4159 c-13 -7 -18 -22 -18 -50 0 -42 -18 -87 -44 -108 -13 -11
-16 -42 -16 -187 0 -163 -1 -175 -20 -192 -20 -16 -21 -23 -14 -238 7 -229 3
-294 -20 -294 -19 0 -26 23 -26 87 0 31 -5 85 -12 120 -9 52 -15 63 -27 57
-24 -10 -123 -11 -148 -3 -21 8 -23 15 -23 74 0 36 -4 65 -9 65 -10 0 -8 70 3
88 11 18 2 25 -35 24 -38 -1 -76 -25 -91 -58 -18 -39 2 -80 130 -269 64 -93
166 -244 227 -335 62 -91 120 -180 129 -197 14 -29 16 -106 16 -778 l0 -747
29 -29 29 -29 342 0 c204 0 349 -4 360 -10 10 -5 27 -29 39 -52 74 -153 254
-245 339 -173 17 14 37 25 46 25 23 0 86 -103 108 -177 20 -67 52 -113 99
-140 16 -9 58 -59 94 -110 70 -99 115 -133 176 -133 65 0 103 35 206 188 54
80 107 151 119 158 18 12 27 12 64 -1 23 -8 75 -15 114 -15 135 0 266 48 576
211 288 152 479 219 579 203 34 -5 43 -3 65 19 30 30 31 45 11 114 -11 36 -28
62 -60 92 -50 46 -55 68 -24 97 28 25 63 87 95 165 31 76 49 99 79 99 38 0 91
28 123 64 63 72 84 240 39 307 -23 33 -25 34 -91 34 -75 0 -74 0 -96 70 -7 22
-24 52 -38 68 -36 38 -107 39 -151 1 -17 -14 -39 -24 -48 -22 -16 3 -18 19
-21 147 -3 169 -12 144 140 376 57 88 117 182 133 209 l28 49 -32 -22 c-25
-18 -31 -20 -31 -7 0 9 5 16 10 16 6 0 10 5 10 11 0 5 -4 7 -10 4 -5 -3 -10
-1 -10 4 0 7 -23 11 -55 11 -37 0 -55 4 -55 13 0 6 -8 1 -18 -13 -13 -20 -24
-24 -49 -22 l-33 3 0 105 0 104 -34 38 -34 37 -106 3 c-84 3 -110 1 -128 -12
-33 -23 -630 -24 -685 -1 -29 12 -99 15 -408 15 l-372 0 -7 40 c-4 27 -20 55
-51 90 -25 28 -45 57 -45 65 0 20 -77 59 -83 42 -2 -8 -9 -7 -21 6 -10 10 -26
16 -35 13 -9 -2 -33 -7 -53 -11 -21 -3 -38 -10 -38 -15 0 -6 -11 -10 -23 -10
-13 0 -27 -3 -31 -7 -3 -4 -27 -8 -53 -10 -74 -4 -73 -2 -73 -108 0 -73 -3
-95 -13 -95 -11 0 -15 34 -21 147 -3 80 -10 151 -15 157 -16 21 -34 183 -29
276 4 90 3 96 -21 123 -25 28 -26 28 -116 22 -121 -9 -122 -9 -129 -54 -3 -21
-12 -41 -20 -44 -7 -3 -16 -19 -19 -36 -4 -17 -16 -40 -27 -51 -11 -11 -20
-33 -20 -49 0 -15 -9 -40 -20 -54 -13 -16 -20 -40 -20 -70 0 -30 -6 -49 -19
-61 -16 -15 -18 -29 -14 -139 5 -167 5 -167 -112 -167 l-92 0 -6 98 c-4 53 -7
122 -7 153 0 30 -4 59 -10 65 -5 5 -13 89 -16 187 l-7 177 -26 0 c-51 0 -91
53 -91 120 0 34 -4 50 -16 54 -22 9 -46 7 -66 -5z m-438 -659 c0 -5 -2 -10 -4
-10 -3 0 -8 5 -11 10 -3 6 -1 10 4 10 6 0 11 -4 11 -10z m1010 -1095 l0 -785
150 0 c83 0 150 -3 150 -6 0 -3 -18 -26 -39 -52 -67 -80 -111 -193 -111 -282
l0 -30 -315 0 -315 0 0 970 0 970 240 0 240 0 0 -785z m610 107 l0 -678 -99
-62 -100 -62 -145 0 -146 0 0 740 0 740 245 0 245 0 0 -678z m1020 493 l0
-185 -210 0 -210 0 0 -45 0 -45 205 0 205 0 0 -185 0 -185 -205 0 -205 0 0
-121 0 -121 -48 -53 c-27 -29 -66 -87 -88 -128 l-39 -76 -44 29 c-70 48 -106
48 -249 4 l-23 -7 3 584 c2 407 6 592 14 609 18 39 62 78 107 94 34 12 113 15
415 15 l372 1 0 -185z m910 0 l0 -185 -165 0 -165 0 0 -95 0 -95 165 0 165 0
0 -180 0 -180 -165 0 -165 0 0 -95 0 -95 61 0 62 0 -7 -31 c-3 -17 -6 -59 -6
-93 l0 -61 -21 35 c-39 64 -112 105 -172 97 -62 -8 -99 -52 -105 -122 -4 -50
-6 -54 -21 -42 -57 50 -161 62 -231 27 -22 -11 -42 -20 -45 -20 -3 0 -5 297
-5 660 l0 660 410 0 410 0 0 -185z m-1930 -1645 l0 -110 -65 0 -64 0 14 39
c23 67 91 181 108 181 4 0 7 -49 7 -110z m-150 86 c0 -2 -13 -32 -29 -67 -62
-138 -66 -264 -9 -321 17 -17 29 -20 69 -15 48 6 49 6 49 -21 0 -40 -14 -55
-49 -54 -76 2 -183 98 -220 197 -28 75 -28 170 0 236 l21 49 84 0 c46 0 84 -2
84 -4z m579 -68 c-10 -40 -33 -143 -50 -228 -28 -133 -32 -177 -33 -312 -1
-150 -2 -158 -21 -160 -72 -5 -109 16 -138 80 -18 41 -21 64 -20 172 1 104 25
352 48 488 l6 32 113 0 114 0 -19 -72z m447 35 c-3 -21 -9 -123 -12 -228 -7
-180 -6 -192 14 -231 24 -47 52 -68 104 -78 88 -16 222 43 481 212 198 130
294 182 402 219 168 57 270 31 291 -73 l6 -31 -84 -6 c-141 -9 -277 -62 -597
-231 -356 -189 -507 -222 -646 -141 -111 64 -165 233 -165 511 l0 114 106 0
107 0 -7 -37z m336 6 c-32 -29 -33 -31 -26 -92 12 -109 46 -149 107 -123 49
20 94 80 125 168 l27 78 87 0 87 0 3 -37 c3 -35 6 -38 33 -38 24 0 34 7 50 37
16 30 26 38 48 38 32 0 33 -8 7 -59 -54 -106 -154 -130 -231 -55 l-36 35 -22
-57 c-49 -129 -142 -207 -247 -207 -67 0 -110 25 -146 83 -33 54 -58 146 -58
212 l0 48 113 0 112 -1 -33 -30z m761 24 c-13 -2 -33 -2 -45 0 -13 2 -3 4 22
4 25 0 35 -2 23 -4z m-649 -49 c21 -8 20 -32 -4 -71 -22 -37 -44 -42 -60 -14
-14 27 -13 35 11 65 22 27 28 30 53 20z m-198 -335 c35 -16 64 -36 64 -44 0
-18 -61 -50 -124 -66 -54 -13 -96 -1 -96 28 0 24 62 113 79 113 7 0 42 -14 77
-31z"/>
<path d="M3347 1362 c-10 -10 -17 -27 -17 -38 0 -14 5 -11 21 14 24 37 21 52
-4 24z"/>
<path d="M3070 1026 c-16 -25 -30 -47 -30 -50 0 -13 60 -5 120 16 l65 21 -30
11 c-17 6 -44 19 -62 29 l-32 17 -31 -44z"/>
<path d="M626 4011 c-9 -10 -32 -56 -51 -102 -31 -75 -35 -94 -35 -176 l0 -93
111 0 112 0 -7 156 c-4 86 -11 166 -16 179 -21 54 -80 73 -114 36z"/>
<path d="M1296 3910 c-15 -5 -37 -17 -49 -27 -20 -18 -117 -208 -117 -230 0
-10 26 -13 95 -13 l95 0 0 55 c0 44 4 56 20 65 15 8 20 21 20 53 0 31 5 45 20
55 11 7 20 21 20 32 0 17 -6 20 -37 19 -21 0 -51 -5 -67 -9z"/>
<path d="M4025 3513 c-11 -3 -39 -16 -62 -30 -32 -18 -58 -25 -112 -26 -38 -1
-67 -5 -63 -8 26 -22 117 -43 195 -44 50 -1 93 -7 100 -14 14 -14 44 -14 53 1
5 8 11 6 20 -6 13 -19 45 -19 51 0 2 7 -23 15 -63 22 -36 6 -69 13 -72 16 -3
3 2 14 11 24 41 45 8 81 -58 65z"/>
<path d="M242 3489 c-87 -17 -129 -74 -110 -149 5 -19 107 -181 227 -360 120
-179 227 -341 237 -360 18 -33 19 -73 24 -770 5 -698 6 -737 24 -766 40 -67
47 -68 396 -74 231 -4 321 -8 338 -18 12 -7 47 -43 77 -79 99 -120 177 -160
290 -148 94 10 114 -4 170 -120 32 -67 60 -109 93 -141 26 -25 76 -82 112
-127 36 -44 80 -90 99 -101 71 -41 171 -16 222 56 l22 30 -43 41 c-23 23 -65
75 -92 115 -27 40 -66 83 -86 96 -48 30 -86 86 -106 155 -16 53 -71 151 -86
151 -4 0 -20 -10 -36 -22 -57 -45 -172 -23 -259 50 -37 30 -99 113 -115 152
l-12 30 -347 0 c-326 0 -348 1 -378 20 -66 40 -63 2 -63 824 l0 745 -114 168
c-62 92 -172 256 -244 363 -72 107 -136 200 -142 207 -5 7 -10 19 -10 28 0 17
-20 18 -88 4z"/>
<path d="M2250 3480 c0 -5 5 -10 11 -10 5 0 7 5 4 10 -3 6 -8 10 -11 10 -2 0
-4 -4 -4 -10z"/>
<path d="M3745 3387 c-22 -11 -67 -28 -99 -36 -98 -26 -84 -41 37 -41 l104 0
27 41 c15 22 26 42 24 44 -17 14 -59 10 -93 -8z"/>
<path d="M4406 3148 c-10 -31 -16 -98 -9 -98 5 0 21 21 37 46 24 38 26 48 15
55 -20 12 -39 11 -43 -3z"/>
<path d="M3965 1066 c-65 -21 -288 -127 -281 -133 1 -2 29 6 61 17 32 11 88
25 124 30 36 6 80 12 97 15 37 6 84 49 84 76 0 23 1 23 -85 -5z"/>
<path d="M3249 730 c-27 -16 -156 -40 -212 -40 -29 0 -70 5 -92 11 -22 6 -49
13 -61 15 -16 5 -28 -6 -56 -48 -19 -29 -39 -64 -43 -77 -7 -22 -6 -23 52 -16
32 4 90 15 129 25 100 27 354 139 314 139 -8 0 -22 -4 -31 -9z"/>
</g>
</svg>
